<svg xmlns="http://www.w3.org/2000/svg" version="1.1" xmlnsXlink="http://www.w3.org/1999/xlink" xmlnsSvgjs="http://svgjs.com/svgjs" width="1920" height="1080" preserveAspectRatio="none" viewBox="0 0 1920 1080"><g mask="url(&quot;#SvgjsMask1744&quot;)" fill="none"><rect width="1920" height="1080" x="0" y="0" fill="rgba(185, 209, 255, 1)"></rect><path d="M2080 1080L0 1080 L0 387.56Q9.82 301.38, 96 311.2Q146.83 202.03, 256 252.86Q323.81 160.67, 416 228.47Q529.33 181.8, 576 295.13Q631.78 254.91, 672 310.69Q764.21 306.9, 768 399.12Q777.87 312.99, 864 322.86Q904.92 203.79, 1024 244.71Q1137.05 197.75, 1184 310.8Q1254.62 221.42, 1344 292.04Q1497.37 285.41, 1504 438.78Q1513.88 352.65, 1600 362.53Q1639.17 241.7, 1760 280.88Q1867.77 228.65, 1920 336.42Q1947.45 203.88, 2080 231.33z" fill="rgba(255, 255, 255, 1)"></path><path d="M1984 1080L0 1080 L0 389.57Q80.73 310.3, 160 391.03Q260.52 395.55, 256 496.08Q334.61 478.69, 352 557.31Q362.5 471.8, 448 482.3Q451.33 389.63, 544 392.97Q630.32 319.3, 704 405.62Q894.28 435.9, 864 626.19Q808.02 474.21, 960 418.23Q1030.21 328.44, 1120 398.65Q1233.36 352.01, 1280 465.37Q1309.81 399.18, 1376 428.99Q1418.13 375.13, 1472 417.26Q1601.75 387.01, 1632 516.76Q1702.32 491.08, 1728 561.4Q1752.71 426.11, 1888 450.82Q1918.13 384.95, 1984 415.09z" fill="rgba(233, 240, 255, 1)"></path><path d="M2048 1080L0 1080 L0 662.93Q74.12 641.04, 96 715.16Q135.12 658.28, 192 697.4Q204.63 614.02, 288 626.65Q329.61 572.26, 384 613.87Q445.08 578.95, 480 640.04Q524.22 524.25, 640 568.47Q698.42 530.89, 736 589.31Q822.96 580.27, 832 667.23Q925.2 664.43, 928 757.63Q958.2 691.83, 1024 722.02Q997.1 599.12, 1120 572.22Q1295.21 587.43, 1280 762.64Q1273.23 659.87, 1376 653.09Q1407.06 588.15, 1472 619.21Q1532.31 519.52, 1632 579.83Q1711.23 563.06, 1728 642.29Q1861.53 615.82, 1888 749.35Q1955.88 657.23, 2048 725.11z" fill="rgba(255, 255, 255, 1)"></path><path d="M2016 1080L0 1080 L0 917.56Q2.61 824.16, 96 826.77Q106.89 741.66, 192 752.55Q314.75 779.3, 288 902.05Q390.11 844.15, 448 946.26Q449.32 851.58, 544 852.9Q574.38 787.27, 640 817.65Q696.06 713.71, 800 769.78Q861.31 735.09, 896 796.4Q1000.98 805.38, 992 910.36Q1058.39 880.75, 1088 947.15Q1182.43 881.58, 1248 976Q1308.09 876.09, 1408 936.18Q1389.73 757.91, 1568 739.65Q1691.52 703.17, 1728 826.7Q1806.49 809.2, 1824 887.69Q1915.95 883.64, 1920 975.59Q1931.55 891.13, 2016 902.68z" fill="rgba(255, 255, 255, 1)"></path><path d="M1952 1080L0 1080 L0 1014.8Q97.07 951.87, 160 1048.94Q219.45 1012.39, 256 1071.85Q260.9 980.75, 352 985.65Q393.47 867.12, 512 908.59Q623.38 859.97, 672 971.34Q710.5 913.84, 768 952.33Q849.47 937.8, 864 1019.27Q1000.06 995.33, 1024 1131.38Q1084.34 1031.72, 1184 1092.07Q1220.82 968.89, 1344 1005.71Q1397.06 962.77, 1440 1015.83Q1552.43 1032.26, 1536 1144.69Q1528.46 977.15, 1696 969.62Q1712.99 890.61, 1792 907.59Q1889.63 845.22, 1952 942.84z" fill="rgba(255, 255, 255, 1)"></path></g><defs><mask id="SvgjsMask1744"><rect width="1920" height="1080" fill="#ffffff"></rect></mask></defs></svg>